<?xml version="1.0" standalone="no"?>
<!DOCTYPE svg PUBLIC "-//W3C//DTD SVG 20010904//EN"
 "http://www.w3.org/TR/2001/REC-SVG-20010904/DTD/svg10.dtd">
<svg version="1.0" xmlns="http://www.w3.org/2000/svg"
 width="1071.000000pt" height="1071.000000pt" viewBox="0 0 1071.000000 1071.000000"
 preserveAspectRatio="xMidYMid meet">
<metadata>
Created by potrace 1.14, written by Peter Selinger 2001-2017
</metadata>
<g transform="translate(0.000000,1071.000000) scale(0.100000,-0.100000)"
fill="#000000" stroke="none">
<path d="M5059 10706 c-2 -2 -53 -7 -114 -10 -60 -4 -119 -9 -130 -11 -11 -2
-47 -7 -80 -10 -33 -3 -69 -7 -81 -9 -12 -2 -45 -7 -75 -11 -30 -3 -61 -8 -69
-10 -8 -2 -33 -7 -55 -10 -23 -3 -52 -7 -65 -10 -411 -79 -783 -191 -1155
-350 -133 -57 -448 -213 -456 -227 -3 -5 -6 -1117 -7 -2469 l0 -2460 26 28
c15 16 65 72 112 124 46 51 91 101 100 110 15 15 136 150 173 193 16 18 154
170 182 200 6 6 66 74 135 151 68 77 131 147 140 155 9 8 45 48 80 89 36 41
79 88 95 106 17 17 46 49 65 71 50 55 488 542 527 584 17 19 40 45 51 58 11
13 58 64 104 114 46 50 92 101 103 114 19 21 139 155 180 200 66 73 152 169
170 188 11 12 56 62 100 111 44 49 85 93 90 99 6 6 46 51 90 101 98 110 84 94
181 201 98 107 268 296 309 343 17 18 39 43 50 55 11 12 56 63 101 112 44 49
127 141 184 204 57 63 126 140 154 171 28 30 67 73 86 95 37 42 222 246 230
254 3 3 43 48 90 100 47 52 90 100 95 106 6 6 38 42 71 80 34 38 74 83 89 99
15 17 46 50 69 75 22 25 64 70 91 100 60 67 192 214 217 242 17 20 28 21 200
21 l183 -1 -56 29 c-190 95 -589 245 -827 310 -42 11 -99 27 -127 34 -27 8
-61 16 -75 19 -14 3 -56 12 -95 21 -38 8 -86 18 -105 21 -19 3 -38 8 -41 10
-5 3 -104 20 -169 29 -14 2 -38 6 -55 9 -16 3 -57 8 -90 12 -33 3 -69 8 -80
10 -11 2 -51 6 -90 9 -38 4 -90 8 -115 11 -50 6 -706 15 -711 10z"/>
<path d="M8513 9619 c-16 -18 -33 -37 -39 -43 -10 -11 -97 -109 -143 -161 -15
-16 -65 -73 -111 -125 -47 -52 -98 -110 -115 -129 -16 -19 -35 -39 -40 -45
-13 -14 -249 -279 -291 -326 -47 -53 -208 -234 -219 -246 -38 -42 -143 -161
-158 -178 -10 -12 -43 -48 -72 -81 -92 -103 -115 -128 -168 -189 -29 -32 -61
-68 -72 -81 -110 -122 -146 -163 -162 -182 -10 -12 -51 -57 -89 -100 -65 -72
-205 -229 -280 -313 -51 -57 -222 -250 -294 -330 -37 -41 -98 -111 -136 -154
-38 -44 -82 -94 -99 -111 -16 -17 -57 -62 -90 -100 -33 -37 -65 -73 -71 -79
-5 -6 -64 -72 -129 -146 -65 -74 -122 -137 -125 -140 -3 -3 -57 -63 -120 -135
-63 -71 -117 -132 -121 -135 -5 -4 -114 -126 -195 -218 -16 -19 -41 -48 -56
-65 -16 -17 -28 -33 -28 -36 0 -6 90 -121 133 -171 12 -14 42 -50 67 -80 25
-30 53 -64 62 -75 9 -11 121 -148 250 -305 128 -157 278 -340 333 -406 55 -67
146 -177 201 -245 56 -68 211 -257 344 -419 133 -162 256 -312 274 -334 17
-21 45 -55 62 -75 17 -20 71 -85 119 -146 49 -60 92 -112 95 -115 3 -3 24 -27
45 -55 22 -27 50 -61 61 -75 12 -14 99 -119 194 -235 95 -115 182 -221 194
-235 12 -14 59 -72 106 -130 47 -58 94 -116 106 -130 12 -14 140 -169 284
-345 144 -176 277 -338 295 -360 18 -22 101 -123 185 -225 83 -102 168 -205
188 -229 20 -24 50 -61 67 -83 16 -21 34 -38 40 -38 22 0 327 287 491 462 99
104 260 299 367 443 86 114 247 350 247 361 0 3 13 24 28 47 101 149 287 516
390 772 79 197 172 469 197 575 2 8 19 78 39 155 19 77 37 151 40 165 2 14 10
50 16 80 6 30 13 69 15 85 3 17 10 53 15 80 5 28 12 74 15 104 4 30 8 62 10
72 2 9 6 48 10 86 4 37 8 82 10 98 14 119 19 268 19 515 0 251 -4 362 -20 530
-14 142 -63 467 -84 550 -5 19 -11 49 -13 65 -20 129 -156 585 -227 760 -67
167 -146 346 -200 455 -95 193 -153 297 -258 465 -227 363 -455 649 -766 961
-169 168 -348 327 -480 426 -16 13 -44 35 -62 51 -40 34 -48 34 -81 -4z"/>
<path d="M1240 8781 c-450 -544 -769 -1124 -983 -1786 -56 -173 -90 -296 -122
-445 -2 -8 -10 -45 -19 -83 -9 -37 -18 -82 -21 -100 -3 -17 -7 -43 -10 -57 -3
-14 -7 -41 -10 -60 -3 -19 -8 -42 -10 -50 -2 -8 -7 -42 -11 -75 -3 -33 -8 -68
-9 -77 -2 -9 -7 -48 -11 -85 -3 -37 -8 -79 -10 -93 -25 -200 -24 -898 2 -1033
2 -12 6 -50 9 -86 3 -36 7 -77 10 -91 2 -14 7 -43 10 -65 3 -22 7 -51 10 -65
2 -14 6 -41 9 -60 44 -308 210 -888 330 -1155 8 -16 35 -79 61 -140 113 -263
306 -603 496 -875 115 -165 164 -228 309 -403 l55 -66 3 1765 c1 971 1 2558 0
3527 l-3 1760 -85 -102z"/>
<path d="M4131 4687 c-51 -59 -179 -202 -211 -237 -8 -9 -89 -99 -180 -200
-90 -102 -169 -190 -175 -196 -10 -11 -128 -143 -155 -174 -8 -9 -51 -57 -95
-106 -104 -114 -165 -182 -245 -273 -36 -41 -76 -85 -90 -100 -14 -14 -56 -62
-95 -106 -38 -44 -80 -91 -91 -103 l-21 -24 0 -1253 0 -1253 181 -90 c157 -79
295 -141 441 -199 22 -8 49 -19 60 -23 141 -57 513 -172 628 -195 10 -2 26 -6
35 -9 9 -3 32 -8 51 -11 19 -3 37 -7 40 -9 3 -2 22 -7 41 -10 19 -3 46 -8 60
-11 57 -12 249 -45 295 -50 28 -4 61 -8 75 -10 27 -4 122 -15 185 -21 275 -25
794 -24 995 1 19 2 55 7 80 10 48 5 119 14 160 20 14 2 50 7 80 10 45 6 401
77 450 90 8 3 35 9 60 15 149 36 483 143 605 195 17 7 55 23 85 35 87 35 324
142 337 153 10 7 5 17 -16 41 -16 17 -71 81 -121 141 -125 150 -172 205 -185
219 -5 6 -42 49 -80 96 -38 47 -72 87 -75 90 -6 6 -108 126 -131 155 -9 11
-43 52 -76 90 -33 39 -68 81 -79 94 -10 13 -23 28 -29 35 -5 6 -35 40 -65 76
-30 36 -57 67 -60 70 -3 3 -50 59 -105 125 -95 114 -287 342 -459 546 -44 52
-127 150 -185 219 -58 69 -108 127 -111 130 -3 3 -25 30 -50 60 -25 30 -47 57
-50 60 -3 3 -41 48 -85 100 -44 52 -82 97 -85 100 -3 3 -62 73 -131 155 -214
257 -723 860 -729 865 -3 3 -24 28 -45 55 -22 28 -43 52 -46 55 -3 3 -30 34
-60 70 -29 36 -63 76 -75 90 -29 34 -318 375 -357 423 -17 20 -34 37 -37 37
-3 -1 -29 -29 -59 -63z"/>
</g>
</svg>
